# xmcd
#
# Track frame offsets:
#	182
#	12575
#	24470
#	36300
#	47605
#	61515
#	71610
#	82235
#	93247
#	106575
#	120155
#	131960
#	144140
#	157245
#	170432
#
# Disc length: 2436
#
# Revision: 3
# Processed by: cddbd v1.5.1PL0 Copyright (c) Steve Scherf et al.
# Submitted via: audiograbber 1.83.01
# Normalized: r2:DSETVAR1
#
DISCID=c009820f
DTITLE=Various Artist - Soul Classics 1964 - (Volume 8)
DYEAR=1999
DGENRE=Soul
TTITLE0=Solomon Burke - Everybody Needs Somebody To Love
TTITLE1=Rufus and Carla - Night Time Is The Right Time
TTITLE2=Otis Redding - Chained And Bound
TTITLE3=Drifters - Saturday Night At The Movies
TTITLE4=Barbara Lewis - Snap Your Fingers
TTITLE5=Little Richard - Bama Lama Bama Loo
TTITLE6=Rufus Thomas - Jump Back
TTITLE7=Don Covay - Mercy Mercy
TTITLE8=Booker T. and The MG's - Soul Dressing
TTITLE9=Wendy Renee - After Laughter (Comes Tears)
TTITLE10=Otis Redding - Security
TTITLE11=Barbara and The Browns - Big Party
TTITLE12=The Enchanters - I Wanna Thank You
TTITLE13=Carla Thomas - A Woman's Love
TTITLE14=Drifters - Under The Boardwalk
EXTD=
EXTT0=
EXTT1=
EXTT2=
EXTT3=
EXTT4=
EXTT5=
EXTT6=
EXTT7=
EXTT8=
EXTT9=
EXTT10=
EXTT11=
EXTT12=
EXTT13=
EXTT14=
PLAYORDER=
